<?xml version="1.0" encoding="utf-8"?>
<!-- Generator: Adobe Illustrator 22.1.0, SVG Export Plug-In . SVG Version: 6.00 Build 0)  -->
<svg version="1.1" id="Layer_1" xmlns="http://www.w3.org/2000/svg" xmlns:xlink="http://www.w3.org/1999/xlink" x="0px" y="0px"
	 viewBox="0 0 109.6 109.6" style="enable-background:new 0 0 109.6 109.6;" xml:space="preserve">
<style type="text/css">
	.st0{fill:none;}
	.st1{fill:#FCFCFF;}
	.st2{fill:#F15C29;}
</style>
<g>
	<path class="st0" d="M55.3,5.6c-0.2,0-0.3,0-0.4,0s-0.3,0-0.4,0c0.2,0,0.3,0,0.4,0S55.2,5.6,55.3,5.6z"/>
	<path class="st0" d="M54.9,104c-0.2,0-0.3,0-0.4,0C54.6,104,54.7,104,54.9,104c0.2,0,0.3,0,0.4,0C55.2,104,55,104,54.9,104z"/>
	<path class="st1" d="M55.3,104c26.9-0.2,48.8-22.2,48.8-49.2S82.2,5.9,55.3,5.6c-0.2,0-0.3,0-0.4,0s-0.3,0-0.4,0
		C27.5,5.9,5.7,27.9,5.7,54.8s21.9,48.9,48.8,49.2c0.2,0,0.3,0,0.4,0S55.2,104,55.3,104z"/>
	<path class="st2" d="M54.9,0C24.7,0,0.1,24.6,0.1,54.8s24.6,54.8,54.8,54.8s54.8-24.6,54.8-54.8S85.1,0,54.9,0z M54.4,104
		C27.5,103.8,5.7,81.8,5.7,54.8S27.5,5.9,54.4,5.6c0.2,0,0.3,0,0.4,0s0.3,0,0.4,0c26.9,0.2,48.8,22.2,48.8,49.2S82.2,103.8,55.3,104
		c-0.2,0-0.3,0-0.4,0S54.6,104,54.4,104z"/>
</g>
</svg>
