<?xml version="1.0" encoding="utf-8"?>
<!-- Generator: Adobe Illustrator 22.1.0, SVG Export Plug-In . SVG Version: 6.00 Build 0)  -->
<svg version="1.1" id="Layer_1" xmlns="http://www.w3.org/2000/svg" xmlns:xlink="http://www.w3.org/1999/xlink" x="0px" y="0px"
	 viewBox="0 0 158.6 387.6" style="enable-background:new 0 0 158.6 387.6;" xml:space="preserve">
<style type="text/css">
	.st0{fill:#FCFCFF;}
	.st1{fill:#F15C29;}
</style>
<g>
	<polygon class="st0" points="79.5,6.6 36,34.3 8.4,51.8 79.5,97 79.5,97 150.6,51.8 	"/>
	<polygon class="st0" points="5.9,334.2 76.6,379 76.7,379.1 76.7,101.9 5.9,57 	"/>
	<polygon class="st0" points="82.3,101.9 82.3,102 82.3,379.1 153.1,334.2 153.1,334.2 153.1,57 153,57.1 	"/>
	<path class="st1" d="M79.5-0.1L0.2,50.2v287l79.3,50.3l79.3-50.3v-287L79.5-0.1z M76.7,379.1L76.7,379.1L5.9,334.2V57l70.8,44.9
		V379.1z M79.5,97L8.4,51.8L36,34.3L79.5,6.6l71.1,45.2L79.5,97L79.5,97z M153.1,334.2L153.1,334.2l-70.8,44.9V102v-0.1L153,57.1
		l0.1-0.1V334.2z"/>
</g>
</svg>
