<?xml version="1.0" encoding="utf-8"?>
<!-- Generator: Adobe Illustrator 22.1.0, SVG Export Plug-In . SVG Version: 6.00 Build 0)  -->
<svg version="1.1" id="Layer_1" xmlns="http://www.w3.org/2000/svg" xmlns:xlink="http://www.w3.org/1999/xlink" x="0px" y="0px"
	 viewBox="0 0 189.8 234.6" style="enable-background:new 0 0 189.8 234.6;" xml:space="preserve">
<style type="text/css">
	.st0{fill:none;}
	.st1{fill:#FCFCFF;}
	.st2{fill:#F15C29;}
</style>
<g>
	<polygon class="st0" points="5.6,171.2 92,226.1 92,226 	"/>
	<polygon class="st0" points="181.7,61.8 94.9,6.7 181.6,61.8 	"/>
	<polygon class="st0" points="8.1,61.8 8.2,61.8 94.9,6.7 	"/>
	<polygon class="st0" points="184.1,67 97.7,121.9 184.1,67.1 	"/>
	<polygon class="st1" points="92,121.9 5.6,67 5.6,171.2 92,226 	"/>
	<polygon class="st1" points="184.1,67.1 97.7,121.9 97.7,226.1 184.1,171.2 	"/>
	<path class="st2" d="M94.9,0l-95,60.3v114l94.9,60.3l94.9-60.3v-114L94.9,0z M5.6,171.2V67L92,121.9V226v0.1L5.6,171.2z M8.1,61.9
		L8.1,61.9L8.1,61.9L94.9,6.7l86.8,55.1l-0.1,0l0.1,0.1L94.9,117L8.1,61.9z M97.7,121.9L184.1,67v0.1v104.1l-86.4,54.9V121.9z"/>
	<polygon class="st1" points="181.6,61.8 94.9,6.7 8.2,61.8 8.1,61.9 94.9,117 181.7,61.9 	"/>
</g>
</svg>
