<?xml version="1.0" encoding="utf-8"?>
<!-- Generator: Adobe Illustrator 22.1.0, SVG Export Plug-In . SVG Version: 6.00 Build 0)  -->
<svg version="1.1" id="Layer_1" xmlns="http://www.w3.org/2000/svg" xmlns:xlink="http://www.w3.org/1999/xlink" x="0px" y="0px"
	 viewBox="0 0 281.6 221.6" style="enable-background:new 0 0 281.6 221.6;" xml:space="preserve">
<style type="text/css">
	.st0{fill:none;}
	.st1{fill:#FCFCFF;}
	.st2{fill:#F15C29;}
</style>
<g>
	<polygon class="st0" points="55,163.1 275.9,34.3 55,163.1 	"/>
	<polygon class="st0" points="235.1,6.5 11.4,135.3 11.5,135.3 	"/>
	<polygon class="st1" points="52.1,158.2 273.1,29.3 235.1,6.5 11.5,135.3 	"/>
	<polygon class="st1" points="55,211.8 275.9,85.8 275.9,34.3 55,163.1 	"/>
	<path class="st2" d="M235.2,0L0,135.4l49.4,27.8v58.4L280.2,89.9l1.4-0.8V27.8L235.2,0z M235.1,6.5l38,22.8l-221,128.9l-40.6-22.9
		l-0.1,0L235.1,6.5z M275.9,85.8L55,211.8v-48.7v0L275.9,34.3V85.8z"/>
</g>
</svg>
