<?xml version="1.0" encoding="utf-8"?>
<!-- Generator: Adobe Illustrator 22.1.0, SVG Export Plug-In . SVG Version: 6.00 Build 0)  -->
<svg version="1.1" id="Layer_1" xmlns="http://www.w3.org/2000/svg" xmlns:xlink="http://www.w3.org/1999/xlink" x="0px" y="0px"
	 viewBox="0 0 247.4 239.3" style="enable-background:new 0 0 247.4 239.3;" xml:space="preserve">
<style type="text/css">
	.st0{fill:#FCFCFF;}
	.st1{fill:#F15C29;}
</style>
<g>
	<polygon class="st0" points="212.3,230.8 241.9,211.7 241.9,166.4 212.3,185.5 	"/>
	<polygon class="st0" points="160.9,67.8 43,6.4 9.1,24 126.3,87.3 	"/>
	<polygon class="st0" points="121.7,91.2 5.8,28.7 5.8,74.9 86.8,119.2 86.8,170 206.7,231.4 206.7,186.9 121.7,143.4 	"/>
	<polygon class="st0" points="127.3,136.8 162.2,117.2 162.2,73.6 127.3,93.2 	"/>
	<polygon class="st0" points="165.1,122.1 130.5,141.5 208.2,181.4 239.8,161.1 	"/>
	<path class="st1" d="M167.8,117.2V65.1L43,0L0.2,22.2v56l81,44.3v50.9l128.5,65.9l37.9-24.5v-56.1L167.8,117.2z M43,6.4l117.9,61.5
		l-34.6,19.5L9.1,24L43,6.4z M162.2,73.6v43.6l-34.8,19.6V93.2L162.2,73.6z M206.7,231.4L86.8,170v-50.8l-81-44.3V28.7l115.8,62.5
		v52.1l85,43.6V231.4z M209.5,233L209.5,233L209.5,233L209.5,233z M208.2,181.4l-77.7-39.8l34.6-19.4l74.7,39L208.2,181.4z
		 M241.9,211.7l-29.6,19.1v-45.4l29.6-19V211.7z"/>
	<polygon class="st0" points="209.5,233 209.5,233 209.5,233 	"/>
</g>
</svg>
