<?xml version="1.0" encoding="utf-8"?>
<!-- Generator: Adobe Illustrator 22.1.0, SVG Export Plug-In . SVG Version: 6.00 Build 0)  -->
<svg version="1.1" id="Layer_1" xmlns="http://www.w3.org/2000/svg" xmlns:xlink="http://www.w3.org/1999/xlink" x="0px" y="0px"
	 viewBox="0 0 226 226" style="enable-background:new 0 0 226 226;" xml:space="preserve">
<style type="text/css">
	.st0{fill:#A7BEC2;}
</style>
<g>
	<path class="st0" d="M222.2,224.1c0,1,0.8,1.9,1.9,1.9c1,0,1.9-0.8,1.9-1.9c0-1-0.8-1.9-1.9-1.9
		C223.1,222.2,222.2,223.1,222.2,224.1"/>
	<path class="st0" d="M222.2,187.1c0,1,0.8,1.9,1.9,1.9c1,0,1.9-0.8,1.9-1.9c0-1-0.8-1.9-1.9-1.9C223.1,185.2,222.2,186,222.2,187.1
		"/>
	<path class="st0" d="M222.2,150c0,1,0.8,1.9,1.9,1.9c1,0,1.9-0.9,1.9-1.9s-0.8-1.9-1.9-1.9C223.1,148.1,222.2,149,222.2,150"/>
	<path class="st0" d="M222.2,113c0,1,0.8,1.9,1.9,1.9c1,0,1.9-0.8,1.9-1.9c0-1-0.8-1.9-1.9-1.9C223.1,111.1,222.2,112,222.2,113"/>
	<path class="st0" d="M222.2,76c0,1,0.8,1.9,1.9,1.9c1,0,1.9-0.8,1.9-1.9s-0.8-1.9-1.9-1.9C223.1,74.1,222.2,74.9,222.2,76"/>
	<path class="st0" d="M222.2,38.9c0,1,0.8,1.9,1.9,1.9c1,0,1.9-0.9,1.9-1.9s-0.8-1.9-1.9-1.9C223.1,37,222.2,37.9,222.2,38.9"/>
	<path class="st0" d="M222.2,1.9c0,1,0.8,1.9,1.9,1.9c1,0,1.9-0.8,1.9-1.9c0-1-0.8-1.9-1.9-1.9C223.1,0,222.2,0.9,222.2,1.9"/>
	<path class="st0" d="M185.2,224.1c0,1,0.9,1.9,1.9,1.9s1.9-0.8,1.9-1.9c0-1-0.8-1.9-1.9-1.9S185.2,223.1,185.2,224.1"/>
	<path class="st0" d="M185.2,187.1c0,1,0.9,1.9,1.9,1.9s1.9-0.8,1.9-1.9c0-1-0.8-1.9-1.9-1.9S185.2,186,185.2,187.1"/>
	<path class="st0" d="M185.2,150c0,1,0.9,1.9,1.9,1.9s1.9-0.9,1.9-1.9s-0.8-1.9-1.9-1.9S185.2,149,185.2,150"/>
	<path class="st0" d="M185.2,113c0,1,0.9,1.9,1.9,1.9s1.9-0.8,1.9-1.9c0-1-0.8-1.9-1.9-1.9S185.2,112,185.2,113"/>
	<path class="st0" d="M185.2,76c0,1,0.9,1.9,1.9,1.9s1.9-0.8,1.9-1.9s-0.8-1.9-1.9-1.9S185.2,74.9,185.2,76"/>
	<path class="st0" d="M185.2,38.9c0,1,0.9,1.9,1.9,1.9s1.9-0.9,1.9-1.9s-0.8-1.9-1.9-1.9S185.2,37.9,185.2,38.9"/>
	<path class="st0" d="M148.1,224.1c0,1,0.8,1.9,1.9,1.9s1.9-0.8,1.9-1.9c0-1-0.9-1.9-1.9-1.9S148.1,223.1,148.1,224.1"/>
	<path class="st0" d="M148.1,187.1c0,1,0.8,1.9,1.9,1.9s1.9-0.8,1.9-1.9c0-1-0.9-1.9-1.9-1.9S148.1,186,148.1,187.1"/>
	<path class="st0" d="M148.1,150c0,1,0.8,1.9,1.9,1.9s1.9-0.9,1.9-1.9s-0.9-1.9-1.9-1.9S148.1,149,148.1,150"/>
	<path class="st0" d="M148.1,113c0,1,0.8,1.9,1.9,1.9s1.9-0.8,1.9-1.9c0-1-0.9-1.9-1.9-1.9S148.1,112,148.1,113"/>
	<path class="st0" d="M148.1,76c0,1,0.8,1.9,1.9,1.9s1.9-0.8,1.9-1.9s-0.9-1.9-1.9-1.9S148.1,74.9,148.1,76"/>
	<path class="st0" d="M111.1,224.1c0,1,0.8,1.9,1.9,1.9c1,0,1.9-0.8,1.9-1.9c0-1-0.8-1.9-1.9-1.9S111.1,223.1,111.1,224.1"/>
	<path class="st0" d="M111.1,187.1c0,1,0.8,1.9,1.9,1.9c1,0,1.9-0.8,1.9-1.9c0-1-0.8-1.9-1.9-1.9S111.1,186,111.1,187.1"/>
	<path class="st0" d="M111.1,150c0,1,0.8,1.9,1.9,1.9c1,0,1.9-0.9,1.9-1.9s-0.8-1.9-1.9-1.9S111.1,149,111.1,150"/>
	<path class="st0" d="M111.1,113c0,1,0.8,1.9,1.9,1.9c1,0,1.9-0.8,1.9-1.9c0-1-0.8-1.9-1.9-1.9S111.1,112,111.1,113"/>
	<path class="st0" d="M74.1,224.1c0,1,0.9,1.9,1.9,1.9s1.9-0.8,1.9-1.9c0-1-0.8-1.9-1.9-1.9S74.1,223.1,74.1,224.1"/>
	<path class="st0" d="M74.1,187.1c0,1,0.9,1.9,1.9,1.9s1.9-0.8,1.9-1.9c0-1-0.8-1.9-1.9-1.9S74.1,186,74.1,187.1"/>
	<path class="st0" d="M74.1,150c0,1,0.9,1.9,1.9,1.9s1.9-0.9,1.9-1.9s-0.8-1.9-1.9-1.9S74.1,149,74.1,150"/>
	<path class="st0" d="M37,224.1c0,1,0.8,1.9,1.9,1.9c1,0,1.9-0.8,1.9-1.9c0-1-0.9-1.9-1.9-1.9S37,223.1,37,224.1"/>
	<path class="st0" d="M37,187.1c0,1,0.8,1.9,1.9,1.9c1,0,1.9-0.8,1.9-1.9c0-1-0.9-1.9-1.9-1.9S37,186,37,187.1"/>
	<path class="st0" d="M0,224.1c0,1,0.8,1.9,1.9,1.9s1.9-0.8,1.9-1.9c0-1-0.8-1.9-1.9-1.9S0,223.1,0,224.1"/>
</g>
</svg>
